<svg width="24" height="24" viewBox="0 0 24 24" fill="none" xmlns="http://www.w3.org/2000/svg">
<circle cx="12" cy="12" r="12" fill="#FF7F7F"/>
<path d="M16.2749 10.9543C16.4675 9.79415 16.1251 8.56175 15.2291 7.66675L13.8959 6.33335C13.4654 5.9029 13.1607 5.39474 12.9817 4.85426C12.8416 4.43128 12.2708 4.2261 12.0153 4.59111C11.2313 5.71099 10.7709 7.07455 10.7709 8.54435V9.66535C10.0881 9.66535 9.48549 9.32281 9.12495 8.80028C8.872 8.43368 8.26795 8.24122 8.06903 8.63973C7.70913 9.36075 7.59665 10.1736 7.72654 10.9543C6.26414 11.4425 5.33334 12.1777 5.33334 13.0001C5.33354 16.6823 8.31914 19.6667 12.0001 19.6667C15.6823 19.6667 18.6667 16.6823 18.6667 13.0001C18.6667 12.1785 17.7359 11.4435 16.2749 10.9543ZM12.0001 18.3333C9.66674 18.3333 7.68754 16.8321 6.96494 14.7435C8.18634 15.3073 9.98714 15.6667 12.0001 15.6667C14.0131 15.6667 15.8139 15.3073 17.0367 14.7435C16.3127 16.8321 14.3347 18.3333 12.0001 18.3333ZM12.0001 14.3333C9.05474 14.3333 6.66674 13.7357 6.66674 13.0001C6.66674 12.6459 7.22094 12.3255 8.11934 12.0873L8.11874 12.0861C8.24979 12.3335 8.40014 12.5741 8.58516 12.7954C8.69838 12.9309 8.87026 12.9987 9.04677 12.9987H9.32322C9.81525 12.9987 10.0617 12.4039 9.71374 12.0559C9.38545 11.7277 9.16196 11.3212 9.06127 10.8785C9.02512 10.7195 9.20045 10.6102 9.34777 10.6801C9.77939 10.8847 10.262 10.9987 10.7711 10.9987H11.1043C11.6566 10.9987 12.1043 10.551 12.1043 9.99875V8.54435C12.1043 8.02237 12.1756 7.51118 12.3138 7.02245C12.3574 6.86828 12.5578 6.83735 12.6615 6.95953C12.7537 7.06829 12.8509 7.17396 12.9533 7.27635L14.2867 8.60975C14.7477 9.07075 15.0015 9.68255 15.0001 10.3335C15.0001 10.9847 14.7461 11.5965 14.2867 12.0575C13.9388 12.4055 14.1852 13.0003 14.6773 13.0003H14.9529C15.1299 13.0003 15.3021 12.932 15.4156 12.7962C15.6006 12.5747 15.7511 12.3348 15.8817 12.0875C16.7795 12.3257 17.3337 12.6461 17.3337 13.0003C17.3335 13.7357 14.9467 14.3333 12.0001 14.3333Z" fill="white"/>
</svg>
