<svg width="24" height="24" viewBox="0 0 24 24" fill="none" xmlns="http://www.w3.org/2000/svg">
<circle cx="12" cy="12" r="12" fill="#C0CA67"/>
<path d="M18.5647 6.30631C18.8051 6.0658 18.8051 5.67594 18.5646 5.43548C18.3241 5.19497 17.9342 5.19498 17.6937 5.4355L16.0318 7.09752V5.61582C16.0318 5.27571 15.7561 5 15.416 5C15.0759 5 14.8002 5.27571 14.8002 5.61582V8.33028C13.1061 7.05891 10.694 7.18878 9.15216 8.73079C8.73853 9.14516 8.42503 9.62437 8.21535 10.1361C8.21522 10.134 6.24607 14.8887 5.07299 17.7215C4.75813 18.4818 5.51807 19.2416 6.27833 18.9266C9.11053 17.753 13.8643 15.7835 13.8643 15.7848C14.3756 15.575 14.8541 15.2622 15.2703 14.8486C16.811 13.3066 16.9409 10.8946 15.6701 9.20058H18.3843C18.7243 9.20058 19 8.9249 19 8.58485C19 8.24479 18.7243 7.96911 18.3843 7.96911H16.9025L18.5647 6.30631ZM13.3978 14.6452L12.7832 14.8972L12.7819 14.9009C12.4584 15.035 12.0206 15.216 11.5137 15.4264L10.4799 14.3923C10.2395 14.1518 9.84964 14.1517 9.60907 14.392C9.36839 14.6325 9.3683 15.0226 9.60888 15.2632L10.2822 15.9365C9.06367 16.441 7.67887 17.0148 6.49655 17.5036C7.39031 15.3452 8.5658 12.5063 9.08436 11.2549L11.3503 13.521C11.5909 13.7616 11.981 13.7615 12.2215 13.5208C12.4619 13.2803 12.4619 12.8903 12.2213 12.6499L9.63913 10.0683C9.7509 9.9024 9.87911 9.74537 10.0241 9.60054C11.2292 8.39549 13.192 8.39493 14.3984 9.60054L14.3996 9.60294C15.11 10.3127 15.39 11.2839 15.2639 12.2092L13.9632 10.9086C13.7228 10.6682 13.3329 10.6681 13.0925 10.9086C12.852 11.149 12.8519 11.5389 13.0923 11.7794L14.7985 13.4861C14.6849 13.6594 14.5519 13.8246 14.3998 13.9768C14.1085 14.267 13.7717 14.4918 13.3978 14.6452Z" fill="white"/>
</svg>
